<svg width="80" height="89" viewBox="0 0 80 89" fill="none" xmlns="http://www.w3.org/2000/svg">
<path d="M6.66675 44.5001C6.66675 24.0195 21.5906 7.41675 40.0001 7.41675C41.5424 7.41675 41.7974 9.98837 40.4774 10.8757C34.1981 15.0969 30.0001 22.7635 30.0001 31.5209C30.0001 44.8335 39.7004 55.6251 51.6668 55.6251C59.5384 55.6251 66.4298 50.9548 70.2241 43.969C71.0218 42.5005 73.3334 42.7842 73.3334 44.5001C73.3334 48.7191 72.7001 52.7734 71.5334 56.5522H73.3334C74.7141 56.5522 75.8334 57.7974 75.8334 59.3334C75.8334 60.8694 74.7141 62.1147 73.3334 62.1147H6.66675C5.28605 62.1147 4.16675 60.8694 4.16675 59.3334C4.16675 57.7974 5.28605 56.5522 6.66675 56.5522H8.46668C7.30005 52.7734 6.66675 48.7191 6.66675 44.5001Z" fill="#DA4256"/>
<path d="M16.6667 67.677C15.286 67.677 14.1667 68.9223 14.1667 70.4583C14.1667 71.9942 15.286 73.2395 16.6667 73.2395H63.3334C64.7141 73.2395 65.8334 71.9942 65.8334 70.4583C65.8334 68.9223 64.7141 67.677 63.3334 67.677H16.6667Z" fill="#DA4256"/>
<path d="M26.6667 78.802C25.286 78.802 24.1667 80.0473 24.1667 81.5833C24.1667 83.1192 25.286 84.3645 26.6667 84.3645H53.3334C54.7141 84.3645 55.8334 83.1192 55.8334 81.5833C55.8334 80.0473 54.7141 78.802 53.3334 78.802H26.6667Z" fill="#DA4256"/>
<path d="M55.8966 49.0708C55.7706 49.0708 55.5006 49.0528 55.0866 49.0168C54.6726 48.9628 54.1866 48.8998 53.6286 48.8278C53.0886 48.7558 52.5396 48.6838 51.9816 48.6118C51.4236 48.5218 50.9286 48.4408 50.4966 48.3688C50.0826 48.2968 49.7946 48.2338 49.6326 48.1798C49.6326 47.9998 49.6596 47.8288 49.7136 47.6668C49.7676 47.5048 49.8216 47.3878 49.8756 47.3158L50.6586 47.2078C50.9646 47.1538 51.2076 47.0548 51.3876 46.9108C51.5856 46.7488 51.7296 46.4788 51.8196 46.1008C51.9096 45.7228 51.9546 45.1918 51.9546 44.5078V33.8428C51.9546 33.3028 51.9816 32.8888 52.0356 32.6008C52.1076 32.2948 52.1796 32.0788 52.2516 31.9528C52.3416 31.8088 52.3956 31.7368 52.4136 31.7368H49.9296C49.8756 31.6648 49.8126 31.5478 49.7406 31.3858C49.6686 31.2238 49.6236 31.0618 49.6056 30.8998C49.7136 30.7918 49.8756 30.6748 50.0916 30.5488C50.3256 30.4228 50.5506 30.3148 50.7666 30.2248C51.0006 30.1168 51.1716 30.0628 51.2796 30.0628H62.8626C63.2586 30.2068 63.6636 30.4138 64.0776 30.6838C64.5096 30.9538 64.8606 31.2598 65.1306 31.6018C65.0586 32.6638 64.9326 33.6448 64.7526 34.5448C64.5906 35.4268 64.4376 36.0838 64.2936 36.5158C63.9336 36.5158 63.5646 36.4798 63.1866 36.4078C62.8266 36.3358 62.5566 36.2638 62.3766 36.1918L61.6476 32.2768C61.3776 32.1688 60.8736 32.0608 60.1356 31.9528C59.3976 31.8448 58.4706 31.7908 57.3546 31.7908C56.6526 31.7908 56.2026 31.9798 56.0046 32.3578C55.8066 32.7358 55.7076 33.2578 55.7076 33.9238V38.7028C56.4636 38.6848 57.1476 38.6668 57.7596 38.6488C58.3896 38.6128 58.9746 38.5678 59.5146 38.5138C60.0546 38.4598 60.5856 38.4058 61.1076 38.3518L61.4316 38.7298C61.4136 39.1438 61.3686 39.5038 61.2966 39.8098C61.2426 40.1158 61.1886 40.3408 61.1346 40.4848H55.7076V45.2098C55.7076 45.6598 55.6536 46.0468 55.5456 46.3708C55.4376 46.6768 55.3296 46.8838 55.2216 46.9918L58.0296 47.3428C58.0656 47.4148 58.1106 47.5228 58.1646 47.6668C58.2186 47.8108 58.2456 47.9818 58.2456 48.1798C57.9936 48.3958 57.6246 48.6028 57.1386 48.8008C56.6526 48.9808 56.2386 49.0708 55.8966 49.0708Z" fill="#DA4256"/>
<path d="M41.3781 39C41.1981 39 40.9731 38.883 40.7031 38.649C40.4511 38.415 40.2171 38.127 40.0011 37.785C39.7851 37.425 39.6771 37.083 39.6771 36.759C40.4871 35.913 41.3151 34.941 42.1611 33.843C43.0251 32.745 43.8891 31.575 44.7531 30.333C45.6351 29.073 46.5081 27.804 47.3721 26.526C47.8941 25.734 48.3981 24.969 48.8841 24.231C49.3701 23.493 49.8291 22.8 50.2611 22.152L43.6461 21.882L42.8361 26.121C42.6561 26.211 42.3771 26.292 41.9991 26.364C41.6391 26.436 41.2791 26.472 40.9191 26.472C40.7931 26.022 40.6581 25.5 40.5141 24.906C40.3881 24.312 40.2801 23.7 40.1901 23.07C40.1001 22.422 40.0551 21.819 40.0551 21.261C40.1631 21.117 40.3431 20.955 40.5951 20.775C40.8471 20.577 41.1171 20.388 41.4051 20.208C41.6931 20.028 41.9631 19.884 42.2151 19.776C42.4671 19.65 42.6471 19.587 42.7551 19.587C42.8991 19.587 43.2321 19.605 43.7541 19.641C44.2761 19.677 44.8971 19.722 45.6171 19.776C46.3371 19.83 47.0661 19.893 47.8041 19.965C48.5421 20.019 49.2081 20.073 49.8021 20.127C50.3961 20.163 50.8191 20.19 51.0711 20.208C51.2691 20.172 51.5301 20.118 51.8541 20.046C52.1781 19.974 52.4931 19.902 52.7991 19.83C53.1231 19.74 53.3481 19.668 53.4741 19.614C53.7441 19.758 54.0321 20.001 54.3381 20.343C54.6621 20.667 54.8691 21.09 54.9591 21.612L45.1311 35.895L51.4761 36.489L53.0691 31.926C53.5011 31.926 53.9061 31.98 54.2841 32.088C54.6621 32.196 54.9321 32.295 55.0941 32.385C55.0941 33.213 55.0671 33.978 55.0131 34.68C54.9591 35.364 54.8961 35.958 54.8241 36.462C54.7701 36.966 54.7071 37.353 54.6351 37.623C54.5091 37.767 54.3381 37.92 54.1221 38.082C53.9061 38.226 53.6631 38.37 53.3931 38.514C53.1411 38.658 52.9071 38.775 52.6911 38.865C52.4751 38.955 52.2951 39 52.1511 39C51.8631 39 51.4041 38.964 50.7741 38.892C50.1441 38.802 49.4421 38.703 48.6681 38.595C47.8941 38.469 47.1201 38.343 46.3461 38.217C45.5721 38.091 44.8971 37.992 44.3211 37.92C43.7451 37.83 43.3581 37.785 43.1601 37.785C42.9621 37.965 42.7371 38.154 42.4851 38.352C42.2511 38.532 42.0261 38.685 41.8101 38.811C41.6121 38.937 41.4681 39 41.3781 39Z" fill="#DA4256"/>
</svg>
